<svg width="30" height="30" viewBox="0 0 30 30" fill="none" xmlns="http://www.w3.org/2000/svg">
<g id="sort-ascending">
<path id="Vector" d="M4.5 4.5C4.10218 4.5 3.72064 4.65804 3.43934 4.93934C3.15804 5.22064 3 5.60218 3 6C3 6.39782 3.15804 6.77936 3.43934 7.06066C3.72064 7.34196 4.10218 7.5 4.5 7.5H21C21.3978 7.5 21.7794 7.34196 22.0607 7.06066C22.342 6.77936 22.5 6.39782 22.5 6C22.5 5.60218 22.342 5.22064 22.0607 4.93934C21.7794 4.65804 21.3978 4.5 21 4.5H4.5ZM4.5 10.5C4.10218 10.5 3.72064 10.658 3.43934 10.9393C3.15804 11.2206 3 11.6022 3 12C3 12.3978 3.15804 12.7794 3.43934 13.0607C3.72064 13.342 4.10218 13.5 4.5 13.5H12C12.3978 13.5 12.7794 13.342 13.0607 13.0607C13.342 12.7794 13.5 12.3978 13.5 12C13.5 11.6022 13.342 11.2206 13.0607 10.9393C12.7794 10.658 12.3978 10.5 12 10.5H4.5ZM4.5 16.5C4.10218 16.5 3.72064 16.658 3.43934 16.9393C3.15804 17.2206 3 17.6022 3 18C3 18.3978 3.15804 18.7794 3.43934 19.0607C3.72064 19.342 4.10218 19.5 4.5 19.5H10.5C10.8978 19.5 11.2794 19.342 11.5607 19.0607C11.842 18.7794 12 18.3978 12 18C12 17.6022 11.842 17.2206 11.5607 16.9393C11.2794 16.658 10.8978 16.5 10.5 16.5H4.5ZM19.5 24C19.5 24.3978 19.658 24.7794 19.9393 25.0607C20.2206 25.342 20.6022 25.5 21 25.5C21.3978 25.5 21.7794 25.342 22.0607 25.0607C22.342 24.7794 22.5 24.3978 22.5 24V15.621L24.4395 17.5605C24.7224 17.8337 25.1013 17.9849 25.4946 17.9815C25.8879 17.9781 26.2641 17.8203 26.5422 17.5422C26.8203 17.2641 26.9781 16.8879 26.9815 16.4946C26.9849 16.1013 26.8337 15.7224 26.5605 15.4395L22.0605 10.9395C21.7792 10.6583 21.3977 10.5003 21 10.5003C20.6023 10.5003 20.2208 10.6583 19.9395 10.9395L15.4395 15.4395C15.2962 15.5779 15.182 15.7434 15.1033 15.9264C15.0247 16.1094 14.9834 16.3062 14.9816 16.5054C14.9799 16.7046 15.0178 16.9021 15.0933 17.0864C15.1687 17.2708 15.2801 17.4383 15.4209 17.5791C15.5617 17.7199 15.7292 17.8313 15.9136 17.9067C16.0979 17.9822 16.2954 18.0201 16.4946 18.0184C16.6938 18.0166 16.8906 17.9753 17.0736 17.8967C17.2566 17.818 17.4221 17.7038 17.5605 17.5605L19.5 15.621V24Z" fill="#9CA3AF"/>
</g>
</svg>
